#N canvas 753 81 836 801 10;
#X declare -path Fraise;
#X obj 22 207 fruit/receive fruit1;
#X msg 462 300 L\$1;
#X obj 462 277 tgl 15 0 empty empty set_LED 18 7 0 10 -4034 -1 -1 0
1;
#X obj 357 326 fruit/send2 fruit1;
#X obj 21 38 pied/pied 0 41424;
#X obj 22 229 route P;
#X floatatom 22 271 5 0 0 0 - - -;
#X obj 19 141 fruit/fruit 1 fruit1 10 DMXBMfw;
#X obj 20 13 declare -path Fraise;
#X floatatom 379 74 5 0 255 0 - - -;
#X msg 379 210 c 11 i \$2 c \$1;
#X obj 379 167 pack f 10;
#X floatatom 454 76 5 0 255 0 - - -;
#X obj 22 250 unpack f f;
#X floatatom 79 271 5 0 0 0 - - -;
#N canvas 1 81 679 625 unused 0;
#X obj 25 20 dcmotor/motor fruit1 120 motorA;
#X obj 27 177 dcmotor/motor fruit1 121 motorB;
#X obj 26 341 ramp/ramp fruit1 20 rampA;
#X obj 28 451 ramp/ramp fruit1 21 rampB;
#X msg 492 517 L\$1;
#X obj 492 494 tgl 15 0 empty empty set_LED 18 7 0 10 -4034 -1 -1 0
1;
#X obj 387 543 fruit/send2 fruit1;
#X msg 424 399 c 120 c 4 i \$1;
#X obj 427 375 hsl 128 15 -1023 1023 0 0 empty empty empty -2 -8 0
10 -262144 -1 -1 0 1;
#X obj 427 437 hsl 128 15 -1023 1023 0 0 empty empty empty -2 -8 0
10 -262144 -1 -1 0 1;
#X msg 424 461 c 121 c 4 i \$1;
#X msg 396 348 0;
#X connect 4 0 6 1;
#X connect 5 0 4 0;
#X connect 7 0 6 0;
#X connect 8 0 7 0;
#X connect 9 0 10 0;
#X connect 10 0 6 0;
#X connect 11 0 8 0;
#X connect 11 0 9 0;
#X restore 159 207 pd unused;
#X obj 710 126 bng 15 250 50 0 empty empty all_reset 17 7 0 10 -262144
-1 -1;
#X msg 710 169 0 \$1;
#X obj 710 148 iemlib/for++ 0 511 1;
#X floatatom 754 179 5 0 0 0 - - -;
#N canvas 1 81 693 330 notes 0;
#X text 80 44 4 canaux consécutifs: motA-envers motA-endroit motB-envers
motB-endroit, f 74;
#X text 84 119 rampe : 0-100% ~ 1s;
#X text 84 90 assign: 1er canal à 100% lors de l'appui bouton;
#X text 82 68 vitesse = endroit-envers;
#X restore 217 356 pd notes;
#X msg 269 206 c 10 i \$1;
#X msg 269 34 10;
#X obj 454 165 pack f 11;
#X floatatom 525 74 5 0 255 0 - - -;
#X floatatom 600 76 5 0 255 0 - - -;
#X obj 525 167 pack f 12;
#X obj 600 165 pack f 13;
#X obj 269 112 f;
#X obj 505 143 + 1;
#X obj 574 146 + 2;
#X obj 651 144 + 3;
#X msg 340 32 508;
#X msg 235 35 1;
#X floatatom 239 151 5 0 0 0 - - -;
#X msg 296 37 254;
#X obj 118 386 timer;
#X obj 117 356 bng 15 250 50 0 empty empty empty 17 7 0 10 -262144
-1 -1;
#X obj 143 354 bng 15 250 50 0 empty empty empty 17 7 0 10 -262144
-1 -1;
#X floatatom 118 407 5 0 0 0 - - -;
#X obj 142 312 change;
#X msg 390 39 255;
#X obj 142 333 sel 1023;
#X floatatom 266 637 4 0 255 0 - - -;
#X floatatom 545 631 8 1 255 1 channel - -;
#X msg 266 741 c 30 i \$2 c \$1;
#X obj 266 689 pack f 1;
#X obj 29 491 fruit/fruit 1 fruit2 11 DMXmaster;
#X obj 266 771 fruit/send2 fruit2;
#X obj 380 668 + 1;
#X obj 449 671 + 2;
#X obj 526 669 + 3;
#X obj 335 689 pack f 2;
#X obj 406 691 pack f 3;
#X obj 481 689 pack f 4;
#X obj 266 498 vsl 15 128 0 255 0 0 empty empty revA 0 -9 0 10 -262144
-1 -1 0 1;
#X obj 333 496 vsl 15 128 0 255 0 0 empty empty forwA 0 -9 0 10 -262144
-1 -1 0 1;
#X obj 406 499 vsl 15 128 0 255 0 0 empty empty revB 0 -9 0 10 -262144
-1 -1 0 1;
#X obj 481 497 vsl 15 128 0 255 0 0 empty empty forwB 0 -9 0 10 -262144
-1 -1 0 1;
#X floatatom 333 636 4 0 255 0 - - -;
#X floatatom 406 640 4 0 255 0 - - -;
#X floatatom 481 639 4 0 255 0 - - -;
#X text 170 464 DMX master for testing:;
#X connect 0 0 5 0;
#X connect 1 0 3 1;
#X connect 2 0 1 0;
#X connect 5 0 13 0;
#X connect 6 0 40 0;
#X connect 9 0 11 0;
#X connect 10 0 3 0;
#X connect 11 0 10 0;
#X connect 12 0 23 0;
#X connect 13 0 6 0;
#X connect 13 1 14 0;
#X connect 16 0 18 0;
#X connect 17 0 10 0;
#X connect 18 0 17 0;
#X connect 18 0 19 0;
#X connect 21 0 3 0;
#X connect 22 0 28 0;
#X connect 23 0 10 0;
#X connect 24 0 26 0;
#X connect 25 0 27 0;
#X connect 26 0 10 0;
#X connect 27 0 10 0;
#X connect 28 0 11 1;
#X connect 28 0 29 0;
#X connect 28 0 31 0;
#X connect 28 0 30 0;
#X connect 28 0 34 0;
#X connect 29 0 23 1;
#X connect 30 0 26 1;
#X connect 31 0 27 1;
#X connect 32 0 28 0;
#X connect 33 0 28 0;
#X connect 35 0 28 0;
#X connect 36 0 39 0;
#X connect 37 0 36 0;
#X connect 38 0 36 1;
#X connect 40 0 42 0;
#X connect 41 0 12 0;
#X connect 41 0 37 0;
#X connect 42 0 38 0;
#X connect 43 0 46 0;
#X connect 44 0 46 1;
#X connect 44 0 49 0;
#X connect 44 0 50 0;
#X connect 44 0 51 0;
#X connect 45 0 48 0;
#X connect 46 0 45 0;
#X connect 49 0 52 1;
#X connect 50 0 53 1;
#X connect 51 0 54 1;
#X connect 52 0 45 0;
#X connect 53 0 45 0;
#X connect 54 0 45 0;
#X connect 55 0 43 0;
#X connect 56 0 59 0;
#X connect 57 0 60 0;
#X connect 58 0 61 0;
#X connect 59 0 52 0;
#X connect 60 0 53 0;
#X connect 61 0 54 0;
